<?xml version="1.0" encoding="UTF-8"?>
<svg xmlns="http://www.w3.org/2000/svg" width="832" height="562" viewBox="0 0 832 562" style="max-width: 832px; width: 100%; height: auto;" role="img">
  <rect width="100%" height="100%" rx="14" fill="#0a0810"/>
  <rect x="0.5" y="0.5" width="831" height="561" rx="14" fill="none" stroke="#2d2b31" stroke-width="1"/>
  <text x="416" y="23" text-anchor="middle" font-family='ui-monospace, "Cascadia Mono", "SF Mono", Menlo, Consolas, "DejaVu Sans Mono", monospace' font-size="13" fill="#8a8a8a">delugefinder</text>
  <g font-family='ui-monospace, "Cascadia Mono", "SF Mono", Menlo, Consolas, "DejaVu Sans Mono", monospace' font-size="16" fill="#ddd8ea">
    <text x="204.8" y="84" textLength="9.6" lengthAdjust="spacingAndGlyphs" xml:space="preserve" fill="#5ae87a" font-weight="600">𐓏</text>
    <rect x="41.6" y="90" width="9.6" height="22" fill="#ffffff"/>
    <rect x="51.2" y="90" width="9.6" height="11" fill="#fcfaff"/>
    <rect x="60.8" y="101" width="9.6" height="11" fill="#f9f4ff"/>
    <rect x="80" y="90" width="9.6" height="22" fill="#f4e9ff"/>
    <rect x="89.6" y="90" width="9.6" height="22" fill="#f1e4ff"/>
    <rect x="99.2" y="90" width="9.6" height="11" fill="#eedeff"/>
    <rect x="118.4" y="90" width="9.6" height="22" fill="#e8d4fe"/>
    <rect x="156.8" y="90" width="9.6" height="22" fill="#ddbefe"/>
    <rect x="176" y="90" width="9.6" height="22" fill="#d8b4fe"/>
    <rect x="195.2" y="101" width="9.6" height="11" fill="#d3b0fe"/>
    <rect x="204.8" y="90" width="9.6" height="11" fill="#d1aefd"/>
    <rect x="214.4" y="90" width="9.6" height="11" fill="#cfadfd"/>
    <rect x="233.6" y="90" width="9.6" height="22" fill="#cba9fd"/>
    <rect x="243.2" y="90" width="9.6" height="22" fill="#c9a7fd"/>
    <rect x="252.8" y="90" width="9.6" height="11" fill="#c7a5fd"/>
    <rect x="272" y="90" width="9.6" height="22" fill="#c2a2fc"/>
    <rect x="281.6" y="90" width="9.6" height="22" fill="#c0a0fc"/>
    <rect x="291.2" y="90" width="9.6" height="11" fill="#be9efc"/>
    <rect x="310.4" y="90" width="9.6" height="11" fill="#ba9bfc"/>
    <rect x="320" y="90" width="9.6" height="22" fill="#b899fb"/>
    <rect x="329.6" y="90" width="9.6" height="11" fill="#b597fb"/>
    <rect x="348.8" y="90" width="9.6" height="22" fill="#b194fb"/>
    <rect x="358.4" y="101" width="9.6" height="11" fill="#af92fb"/>
    <rect x="368" y="90" width="9.6" height="22" fill="#ad90fa"/>
    <rect x="387.2" y="90" width="9.6" height="22" fill="#a98cfa"/>
    <rect x="396.8" y="90" width="9.6" height="11" fill="#a78bfa"/>
    <rect x="406.4" y="101" width="9.6" height="11" fill="#a589f8"/>
    <rect x="425.6" y="90" width="9.6" height="22" fill="#a286f6"/>
    <rect x="435.2" y="90" width="9.6" height="22" fill="#a084f5"/>
    <rect x="444.8" y="90" width="9.6" height="11" fill="#9f82f3"/>
    <rect x="464" y="90" width="9.6" height="22" fill="#9c7ff1"/>
    <rect x="473.6" y="90" width="9.6" height="22" fill="#9a7def"/>
    <rect x="483.2" y="101" width="9.6" height="11" fill="#997bee"/>
    <rect x="41.6" y="112" width="9.6" height="22" fill="#997bee"/>
    <rect x="51.2" y="123" width="9.6" height="11" fill="#977aed"/>
    <rect x="60.8" y="112" width="9.6" height="11" fill="#9678eb"/>
    <rect x="80" y="112" width="9.6" height="22" fill="#9275e9"/>
    <rect x="89.6" y="123" width="9.6" height="11" fill="#9173e7"/>
    <rect x="99.2" y="123" width="9.6" height="11" fill="#8f71e6"/>
    <rect x="118.4" y="112" width="9.6" height="22" fill="#8c6ee4"/>
    <rect x="128" y="123" width="9.6" height="11" fill="#8b6ce2"/>
    <rect x="137.6" y="123" width="9.6" height="11" fill="#896ae1"/>
    <rect x="156.8" y="112" width="9.6" height="11" fill="#8667de"/>
    <rect x="166.4" y="123" width="9.6" height="11" fill="#8465dd"/>
    <rect x="176" y="112" width="9.6" height="11" fill="#8363dc"/>
    <rect x="195.2" y="112" width="9.6" height="11" fill="#8060d9"/>
    <rect x="204.8" y="123" width="9.6" height="11" fill="#7e5ed8"/>
    <rect x="214.4" y="112" width="9.6" height="22" fill="#7d5dd7"/>
    <rect x="233.6" y="112" width="9.6" height="22" fill="#795ad2"/>
    <rect x="243.2" y="123" width="9.6" height="11" fill="#7759cf"/>
    <rect x="252.8" y="123" width="9.6" height="11" fill="#7658cc"/>
    <rect x="272" y="112" width="9.6" height="22" fill="#7255c7"/>
    <rect x="310.4" y="123" width="9.6" height="11" fill="#6b50bc"/>
    <rect x="320" y="112" width="9.6" height="22" fill="#6a4fb9"/>
    <rect x="329.6" y="123" width="9.6" height="11" fill="#684eb6"/>
    <rect x="348.8" y="112" width="9.6" height="22" fill="#644bb1"/>
    <rect x="358.4" y="112" width="9.6" height="11" fill="#634aae"/>
    <rect x="368" y="112" width="9.6" height="22" fill="#6149ab"/>
    <rect x="387.2" y="112" width="9.6" height="22" fill="#5d46a6"/>
    <rect x="396.8" y="123" width="9.6" height="11" fill="#5c45a3"/>
    <rect x="406.4" y="112" width="9.6" height="11" fill="#5a44a0"/>
    <rect x="425.6" y="112" width="9.6" height="22" fill="#56419b"/>
    <rect x="435.2" y="123" width="9.6" height="11" fill="#554098"/>
    <rect x="444.8" y="123" width="9.6" height="11" fill="#533f95"/>
    <rect x="464" y="112" width="9.6" height="22" fill="#4f3c90"/>
    <rect x="473.6" y="112" width="9.6" height="11" fill="#4e3b8d"/>
    <rect x="483.2" y="123" width="9.6" height="11" fill="#4c3a8a"/>
    <text x="41.6" y="150" textLength="748.8" lengthAdjust="spacingAndGlyphs" xml:space="preserve" fill="#6b6577">──────────────────────────────────────────────────────────────────────────────</text>
    <rect x="41.6" y="178" width="4.8" height="22" fill="#6b6577"/>
    <text x="60.8" y="194" textLength="28.8" lengthAdjust="spacingAndGlyphs" xml:space="preserve" fill="#b9a7e6">All</text>
    <text x="128" y="194" textLength="19.2" lengthAdjust="spacingAndGlyphs" xml:space="preserve" fill="#6b6577">╭─</text>
    <text x="156.8" y="194" textLength="57.6" lengthAdjust="spacingAndGlyphs" xml:space="preserve" fill="#6b6577" font-weight="600">Search</text>
    <text x="224" y="194" textLength="566.4" lengthAdjust="spacingAndGlyphs" xml:space="preserve" fill="#6b6577">──────────────────────────────────────────────────────────╮</text>
    <text x="60.8" y="216" textLength="48" lengthAdjust="spacingAndGlyphs" xml:space="preserve" fill="#e9e4f5" fill-opacity="0.55">Games</text>
    <rect x="132.1" y="200" width="1.4" height="22" fill="#6b6577"/>
    <text x="147.2" y="216" textLength="9.6" lengthAdjust="spacingAndGlyphs" xml:space="preserve" fill="#a78bfa">❯</text>
    <text x="166.4" y="216" textLength="288" lengthAdjust="spacingAndGlyphs" xml:space="preserve" fill="#e9e4f5" fill-opacity="0.55">Search or paste a magnet link…</text>
    <rect x="784.9" y="200" width="1.4" height="22" fill="#6b6577"/>
    <text x="60.8" y="238" textLength="57.6" lengthAdjust="spacingAndGlyphs" xml:space="preserve" fill="#e9e4f5" fill-opacity="0.55">Movies</text>
    <rect x="128" y="222" width="662.4" height="22" fill="#000000"/>
    <text x="128" y="238" textLength="662.4" lengthAdjust="spacingAndGlyphs" xml:space="preserve" fill="#6b6577">╰───────────────────────────────────────────────────────────────────╯</text>
    <text x="60.8" y="260" textLength="19.2" lengthAdjust="spacingAndGlyphs" xml:space="preserve" fill="#e9e4f5" fill-opacity="0.55">TV</text>
    <text x="60.8" y="282" textLength="48" lengthAdjust="spacingAndGlyphs" xml:space="preserve" fill="#e9e4f5" fill-opacity="0.55">Anime</text>
    <text x="128" y="282" textLength="19.2" lengthAdjust="spacingAndGlyphs" xml:space="preserve" fill="#a78bfa">╭─</text>
    <text x="156.8" y="282" textLength="96" lengthAdjust="spacingAndGlyphs" xml:space="preserve" fill="#a78bfa" font-weight="600">Latest (5)</text>
    <text x="262.4" y="282" textLength="528" lengthAdjust="spacingAndGlyphs" xml:space="preserve" fill="#a78bfa">──────────────────────────────────────────────────────╮</text>
    <rect x="132.1" y="288" width="1.4" height="22" fill="#a78bfa"/>
    <text x="147.2" y="304" textLength="240" lengthAdjust="spacingAndGlyphs" xml:space="preserve" fill-opacity="0.55">newest across all sources</text>
    <rect x="784.9" y="288" width="1.4" height="22" fill="#a78bfa"/>
    <rect x="132.1" y="310" width="1.4" height="22" fill="#a78bfa"/>
    <rect x="784.9" y="310" width="1.4" height="22" fill="#a78bfa"/>
    <rect x="132.1" y="332" width="1.4" height="22" fill="#a78bfa"/>
    <text x="176" y="348" textLength="9.6" lengthAdjust="spacingAndGlyphs" xml:space="preserve" fill-opacity="0.55" font-weight="600">#</text>
    <text x="195.2" y="348" textLength="38.4" lengthAdjust="spacingAndGlyphs" xml:space="preserve" fill-opacity="0.55" font-weight="600">Name</text>
    <text x="588.8" y="348" textLength="38.4" lengthAdjust="spacingAndGlyphs" xml:space="preserve" fill-opacity="0.55" font-weight="600">Size</text>
    <text x="646.4" y="348" textLength="76.8" lengthAdjust="spacingAndGlyphs" xml:space="preserve" fill-opacity="0.55" font-weight="600">Seed:Lch</text>
    <text x="742.4" y="348" textLength="28.8" lengthAdjust="spacingAndGlyphs" xml:space="preserve" fill-opacity="0.55" font-weight="600">Src</text>
    <rect x="784.9" y="332" width="1.4" height="22" fill="#a78bfa"/>
    <rect x="132.1" y="354" width="1.4" height="22" fill="#a78bfa"/>
    <text x="147.2" y="370" textLength="9.6" lengthAdjust="spacingAndGlyphs" xml:space="preserve" fill="#a78bfa">❯</text>
    <text x="176" y="370" textLength="9.6" lengthAdjust="spacingAndGlyphs" xml:space="preserve" fill-opacity="0.55">1</text>
    <text x="195.2" y="370" textLength="288" lengthAdjust="spacingAndGlyphs" xml:space="preserve" fill="#a78bfa" font-weight="600">Oppenheimer (2023) [1080p WEB]</text>
    <text x="560" y="370" textLength="67.2" lengthAdjust="spacingAndGlyphs" xml:space="preserve" fill-opacity="0.55">1.96 GB</text>
    <text x="656" y="370" textLength="67.2" lengthAdjust="spacingAndGlyphs" xml:space="preserve" fill="#86d6a2">1240:88</text>
    <text x="732.8" y="370" textLength="38.4" lengthAdjust="spacingAndGlyphs" xml:space="preserve" fill="#f6a55c">PROW</text>
    <rect x="784.9" y="354" width="1.4" height="22" fill="#a78bfa"/>
    <rect x="132.1" y="376" width="1.4" height="22" fill="#a78bfa"/>
    <text x="176" y="392" textLength="9.6" lengthAdjust="spacingAndGlyphs" xml:space="preserve" fill-opacity="0.55">2</text>
    <text x="195.2" y="392" textLength="326.4" lengthAdjust="spacingAndGlyphs" xml:space="preserve" fill-opacity="0.55">Dune: Part Two (2024) [2160p BluR…</text>
    <text x="560" y="392" textLength="67.2" lengthAdjust="spacingAndGlyphs" xml:space="preserve" fill-opacity="0.55">7.82 GB</text>
    <text x="665.6" y="392" textLength="57.6" lengthAdjust="spacingAndGlyphs" xml:space="preserve" fill="#86d6a2">910:41</text>
    <text x="732.8" y="392" textLength="38.4" lengthAdjust="spacingAndGlyphs" xml:space="preserve" fill="#f6a55c" fill-opacity="0.55">PROW</text>
    <rect x="784.9" y="376" width="1.4" height="22" fill="#a78bfa"/>
    <rect x="132.1" y="398" width="1.4" height="22" fill="#a78bfa"/>
    <text x="176" y="414" textLength="9.6" lengthAdjust="spacingAndGlyphs" xml:space="preserve" fill-opacity="0.55">3</text>
    <text x="195.2" y="414" textLength="307.2" lengthAdjust="spacingAndGlyphs" xml:space="preserve" fill-opacity="0.55">Breaking Bad S05E14 1080p WEB-DL</text>
    <text x="560" y="414" textLength="67.2" lengthAdjust="spacingAndGlyphs" xml:space="preserve" fill-opacity="0.55">1.49 GB</text>
    <text x="665.6" y="414" textLength="57.6" lengthAdjust="spacingAndGlyphs" xml:space="preserve" fill="#86d6a2">540:31</text>
    <text x="732.8" y="414" textLength="38.4" lengthAdjust="spacingAndGlyphs" xml:space="preserve" fill="#86d6a2" fill-opacity="0.55">PROW</text>
    <rect x="784.9" y="398" width="1.4" height="22" fill="#a78bfa"/>
    <rect x="132.1" y="420" width="1.4" height="22" fill="#a78bfa"/>
    <text x="176" y="436" textLength="9.6" lengthAdjust="spacingAndGlyphs" xml:space="preserve" fill-opacity="0.55">4</text>
    <text x="195.2" y="436" textLength="326.4" lengthAdjust="spacingAndGlyphs" xml:space="preserve" fill-opacity="0.55">[Erai-raws] Jujutsu Kaisen S2 - 2…</text>
    <text x="560" y="436" textLength="67.2" lengthAdjust="spacingAndGlyphs" xml:space="preserve" fill-opacity="0.55">1.21 GB</text>
    <text x="665.6" y="436" textLength="57.6" lengthAdjust="spacingAndGlyphs" xml:space="preserve" fill="#86d6a2">320:12</text>
    <text x="732.8" y="436" textLength="38.4" lengthAdjust="spacingAndGlyphs" xml:space="preserve" fill="#d8b4fe" fill-opacity="0.55">PROW</text>
    <rect x="784.9" y="420" width="1.4" height="22" fill="#a78bfa"/>
    <rect x="132.1" y="442" width="1.4" height="22" fill="#a78bfa"/>
    <text x="176" y="458" textLength="9.6" lengthAdjust="spacingAndGlyphs" xml:space="preserve" fill-opacity="0.55">5</text>
    <text x="195.2" y="458" textLength="192" lengthAdjust="spacingAndGlyphs" xml:space="preserve" fill-opacity="0.55">Frieren - 28 [1080p]</text>
    <text x="560" y="458" textLength="67.2" lengthAdjust="spacingAndGlyphs" xml:space="preserve" fill-opacity="0.55">1.30 GB</text>
    <text x="713.6" y="458" textLength="9.6" lengthAdjust="spacingAndGlyphs" xml:space="preserve" fill-opacity="0.55">-</text>
    <text x="732.8" y="458" textLength="38.4" lengthAdjust="spacingAndGlyphs" xml:space="preserve" fill="#d8b4fe" fill-opacity="0.55">PROW</text>
    <rect x="784.9" y="442" width="1.4" height="22" fill="#a78bfa"/>
    <rect x="128" y="464" width="662.4" height="22" fill="#000000"/>
    <text x="128" y="480" textLength="662.4" lengthAdjust="spacingAndGlyphs" xml:space="preserve" fill="#a78bfa">╰───────────────────────────────────────────────────────────────────╯</text>
    <text x="41.6" y="502" textLength="38.4" lengthAdjust="spacingAndGlyphs" xml:space="preserve" fill="#b9a7e6">↑↓←→</text>
    <text x="89.6" y="502" textLength="38.4" lengthAdjust="spacingAndGlyphs" xml:space="preserve" fill="#e9e4f5" fill-opacity="0.55">Move</text>
    <text x="156.8" y="502" textLength="9.6" lengthAdjust="spacingAndGlyphs" xml:space="preserve" fill="#b9a7e6">d</text>
    <text x="176" y="502" textLength="134.4" lengthAdjust="spacingAndGlyphs" xml:space="preserve" fill="#e9e4f5" fill-opacity="0.55">Send to Deluge</text>
    <text x="339.2" y="502" textLength="9.6" lengthAdjust="spacingAndGlyphs" xml:space="preserve" fill="#b9a7e6">y</text>
    <text x="358.4" y="502" textLength="38.4" lengthAdjust="spacingAndGlyphs" xml:space="preserve" fill="#e9e4f5" fill-opacity="0.55">Copy</text>
    <text x="425.6" y="502" textLength="9.6" lengthAdjust="spacingAndGlyphs" xml:space="preserve" fill="#b9a7e6">s</text>
    <text x="444.8" y="502" textLength="38.4" lengthAdjust="spacingAndGlyphs" xml:space="preserve" fill="#e9e4f5" fill-opacity="0.55">Sort</text>
    <text x="512" y="502" textLength="9.6" lengthAdjust="spacingAndGlyphs" xml:space="preserve" fill="#b9a7e6">/</text>
    <text x="531.2" y="502" textLength="57.6" lengthAdjust="spacingAndGlyphs" xml:space="preserve" fill="#e9e4f5" fill-opacity="0.55">Search</text>
    <text x="617.6" y="502" textLength="28.8" lengthAdjust="spacingAndGlyphs" xml:space="preserve" fill="#b9a7e6">tab</text>
    <text x="656" y="502" textLength="57.6" lengthAdjust="spacingAndGlyphs" xml:space="preserve" fill="#e9e4f5" fill-opacity="0.55">Switch</text>
    <text x="742.4" y="502" textLength="9.6" lengthAdjust="spacingAndGlyphs" xml:space="preserve" fill="#b9a7e6">?</text>
    <text x="41.6" y="524" textLength="38.4" lengthAdjust="spacingAndGlyphs" xml:space="preserve" fill="#e9e4f5" fill-opacity="0.55">Keys</text>
  </g>
</svg>