<?xml version="1.0" encoding="UTF-8"?>
<svg xmlns="http://www.w3.org/2000/svg" width="832" height="386" viewBox="0 0 832 386" style="max-width: 832px; width: 100%; height: auto;" role="img">
  <rect width="100%" height="100%" rx="14" fill="#0a0810"/>
  <rect x="0.5" y="0.5" width="831" height="385" rx="14" fill="none" stroke="#2d2b31" stroke-width="1"/>
  <text x="416" y="23" text-anchor="middle" font-family='ui-monospace, "Cascadia Mono", "SF Mono", Menlo, Consolas, "DejaVu Sans Mono", monospace' font-size="13" fill="#8a8a8a">delugefinder</text>
  <g font-family='ui-monospace, "Cascadia Mono", "SF Mono", Menlo, Consolas, "DejaVu Sans Mono", monospace' font-size="16" fill="#ddd8ea">
    <text x="358.4" y="84" textLength="9.6" lengthAdjust="spacingAndGlyphs" xml:space="preserve" fill="#5ae87a" font-weight="600">𐓏</text>
    <rect x="195.2" y="90" width="9.6" height="22" fill="#ffffff"/>
    <rect x="204.8" y="90" width="9.6" height="11" fill="#fcfaff"/>
    <rect x="214.4" y="101" width="9.6" height="11" fill="#f9f4ff"/>
    <rect x="233.6" y="90" width="9.6" height="22" fill="#f4e9ff"/>
    <rect x="243.2" y="90" width="9.6" height="22" fill="#f1e4ff"/>
    <rect x="252.8" y="90" width="9.6" height="11" fill="#eedeff"/>
    <rect x="272" y="90" width="9.6" height="22" fill="#e8d4fe"/>
    <rect x="310.4" y="90" width="9.6" height="22" fill="#ddbefe"/>
    <rect x="329.6" y="90" width="9.6" height="22" fill="#d8b4fe"/>
    <rect x="348.8" y="101" width="9.6" height="11" fill="#d3b0fe"/>
    <rect x="358.4" y="90" width="9.6" height="11" fill="#d1aefd"/>
    <rect x="368" y="90" width="9.6" height="11" fill="#cfadfd"/>
    <rect x="387.2" y="90" width="9.6" height="22" fill="#cba9fd"/>
    <rect x="396.8" y="90" width="9.6" height="22" fill="#c9a7fd"/>
    <rect x="406.4" y="90" width="9.6" height="11" fill="#c7a5fd"/>
    <rect x="425.6" y="90" width="9.6" height="22" fill="#c2a2fc"/>
    <rect x="435.2" y="90" width="9.6" height="22" fill="#c0a0fc"/>
    <rect x="444.8" y="90" width="9.6" height="11" fill="#be9efc"/>
    <rect x="464" y="90" width="9.6" height="11" fill="#ba9bfc"/>
    <rect x="473.6" y="90" width="9.6" height="22" fill="#b899fb"/>
    <rect x="483.2" y="90" width="9.6" height="11" fill="#b597fb"/>
    <rect x="502.4" y="90" width="9.6" height="22" fill="#b194fb"/>
    <rect x="512" y="101" width="9.6" height="11" fill="#af92fb"/>
    <rect x="521.6" y="90" width="9.6" height="22" fill="#ad90fa"/>
    <rect x="540.8" y="90" width="9.6" height="22" fill="#a98cfa"/>
    <rect x="550.4" y="90" width="9.6" height="11" fill="#a78bfa"/>
    <rect x="560" y="101" width="9.6" height="11" fill="#a589f8"/>
    <rect x="579.2" y="90" width="9.6" height="22" fill="#a286f6"/>
    <rect x="588.8" y="90" width="9.6" height="22" fill="#a084f5"/>
    <rect x="598.4" y="90" width="9.6" height="11" fill="#9f82f3"/>
    <rect x="617.6" y="90" width="9.6" height="22" fill="#9c7ff1"/>
    <rect x="627.2" y="90" width="9.6" height="22" fill="#9a7def"/>
    <rect x="636.8" y="101" width="9.6" height="11" fill="#997bee"/>
    <rect x="195.2" y="112" width="9.6" height="22" fill="#997bee"/>
    <rect x="204.8" y="123" width="9.6" height="11" fill="#977aed"/>
    <rect x="214.4" y="112" width="9.6" height="11" fill="#9678eb"/>
    <rect x="233.6" y="112" width="9.6" height="22" fill="#9275e9"/>
    <rect x="243.2" y="123" width="9.6" height="11" fill="#9173e7"/>
    <rect x="252.8" y="123" width="9.6" height="11" fill="#8f71e6"/>
    <rect x="272" y="112" width="9.6" height="22" fill="#8c6ee4"/>
    <rect x="281.6" y="123" width="9.6" height="11" fill="#8b6ce2"/>
    <rect x="291.2" y="123" width="9.6" height="11" fill="#896ae1"/>
    <rect x="310.4" y="112" width="9.6" height="11" fill="#8667de"/>
    <rect x="320" y="123" width="9.6" height="11" fill="#8465dd"/>
    <rect x="329.6" y="112" width="9.6" height="11" fill="#8363dc"/>
    <rect x="348.8" y="112" width="9.6" height="11" fill="#8060d9"/>
    <rect x="358.4" y="123" width="9.6" height="11" fill="#7e5ed8"/>
    <rect x="368" y="112" width="9.6" height="22" fill="#7d5dd7"/>
    <rect x="387.2" y="112" width="9.6" height="22" fill="#795ad2"/>
    <rect x="396.8" y="123" width="9.6" height="11" fill="#7759cf"/>
    <rect x="406.4" y="123" width="9.6" height="11" fill="#7658cc"/>
    <rect x="425.6" y="112" width="9.6" height="22" fill="#7255c7"/>
    <rect x="464" y="123" width="9.6" height="11" fill="#6b50bc"/>
    <rect x="473.6" y="112" width="9.6" height="22" fill="#6a4fb9"/>
    <rect x="483.2" y="123" width="9.6" height="11" fill="#684eb6"/>
    <rect x="502.4" y="112" width="9.6" height="22" fill="#644bb1"/>
    <rect x="512" y="112" width="9.6" height="11" fill="#634aae"/>
    <rect x="521.6" y="112" width="9.6" height="22" fill="#6149ab"/>
    <rect x="540.8" y="112" width="9.6" height="22" fill="#5d46a6"/>
    <rect x="550.4" y="123" width="9.6" height="11" fill="#5c45a3"/>
    <rect x="560" y="112" width="9.6" height="11" fill="#5a44a0"/>
    <rect x="579.2" y="112" width="9.6" height="22" fill="#56419b"/>
    <rect x="588.8" y="123" width="9.6" height="11" fill="#554098"/>
    <rect x="598.4" y="123" width="9.6" height="11" fill="#533f95"/>
    <rect x="617.6" y="112" width="9.6" height="22" fill="#4f3c90"/>
    <rect x="627.2" y="112" width="9.6" height="11" fill="#4e3b8d"/>
    <rect x="636.8" y="123" width="9.6" height="11" fill="#4c3a8a"/>
    <text x="272" y="194" textLength="288" lengthAdjust="spacingAndGlyphs" xml:space="preserve" fill="#e9e4f5">Find torrents. Send to Deluge.</text>
    <text x="262.4" y="216" textLength="316.8" lengthAdjust="spacingAndGlyphs" xml:space="preserve" fill-opacity="0.55">games  ·  movies  ·  tv  ·  anime</text>
    <text x="118.4" y="260" textLength="19.2" lengthAdjust="spacingAndGlyphs" xml:space="preserve" fill="#a78bfa">╭─</text>
    <text x="147.2" y="260" textLength="57.6" lengthAdjust="spacingAndGlyphs" xml:space="preserve" fill="#a78bfa" font-weight="600">Search</text>
    <text x="214.4" y="260" textLength="499.2" lengthAdjust="spacingAndGlyphs" xml:space="preserve" fill="#a78bfa">───────────────────────────────────────────────────╮</text>
    <rect x="122.5" y="266" width="1.4" height="22" fill="#a78bfa"/>
    <text x="137.6" y="282" textLength="9.6" lengthAdjust="spacingAndGlyphs" xml:space="preserve" fill="#a78bfa">❯</text>
    <rect x="156.8" y="266" width="9.6" height="22" fill="#e9e4f5"/>
    <text x="156.8" y="282" textLength="9.6" lengthAdjust="spacingAndGlyphs" xml:space="preserve" fill="#0a0810">S</text>
    <text x="166.4" y="282" textLength="278.4" lengthAdjust="spacingAndGlyphs" xml:space="preserve" fill="#e9e4f5" fill-opacity="0.55">earch or paste a magnet link…</text>
    <rect x="708.1" y="266" width="1.4" height="22" fill="#a78bfa"/>
    <rect x="118.4" y="288" width="595.2" height="22" fill="#000000"/>
    <text x="118.4" y="304" textLength="595.2" lengthAdjust="spacingAndGlyphs" xml:space="preserve" fill="#a78bfa">╰────────────────────────────────────────────────────────────╯</text>
    <text x="233.6" y="348" textLength="9.6" lengthAdjust="spacingAndGlyphs" xml:space="preserve" fill="#b9a7e6">↵</text>
    <text x="252.8" y="348" textLength="153.6" lengthAdjust="spacingAndGlyphs" xml:space="preserve" fill-opacity="0.55">search  ·  empty</text>
    <text x="416" y="348" textLength="9.6" lengthAdjust="spacingAndGlyphs" xml:space="preserve" fill="#b9a7e6">↵</text>
    <text x="435.2" y="348" textLength="86.4" lengthAdjust="spacingAndGlyphs" xml:space="preserve" fill-opacity="0.55">browse  ·</text>
    <text x="540.8" y="348" textLength="19.2" lengthAdjust="spacingAndGlyphs" xml:space="preserve" fill="#b9a7e6">^c</text>
    <text x="569.6" y="348" textLength="38.4" lengthAdjust="spacingAndGlyphs" xml:space="preserve" fill-opacity="0.55">quit</text>
  </g>
</svg>